<?xml version="1.0" encoding="UTF-8" standalone="no"?>
<!-- Created with Inkscape (http://www.inkscape.org/) -->

<svg
   xmlns:dc="http://purl.org/dc/elements/1.1/"
   xmlns:cc="http://creativecommons.org/ns#"
   xmlns:rdf="http://www.w3.org/1999/02/22-rdf-syntax-ns#"
   xmlns:svg="http://www.w3.org/2000/svg"
   xmlns="http://www.w3.org/2000/svg"
   xmlns:sodipodi="http://sodipodi.sourceforge.net/DTD/sodipodi-0.dtd"
   xmlns:inkscape="http://www.inkscape.org/namespaces/inkscape"
   width="89.956154"
   height="246.57249"
   id="svg2"
   version="1.1"
   inkscape:version="0.48.4 r"
   sodipodi:docname="Z.svg">
  <defs
     id="defs4" />
  <sodipodi:namedview
     id="base"
     pagecolor="#ffffff"
     bordercolor="#666666"
     borderopacity="1.0"
     inkscape:pageopacity="0.0"
     inkscape:pageshadow="2"
     inkscape:zoom="1.4"
     inkscape:cx="-105.10414"
     inkscape:cy="172.33732"
     inkscape:document-units="px"
     inkscape:current-layer="layer1"
     showgrid="false"
     inkscape:window-width="1280"
     inkscape:window-height="756"
     inkscape:window-x="0"
     inkscape:window-y="0"
     inkscape:window-maximized="0"
     fit-margin-top="0"
     fit-margin-left="0"
     fit-margin-right="0"
     fit-margin-bottom="0">
    <inkscape:grid
       type="xygrid"
       id="grid4102"
       empspacing="5"
       visible="true"
       enabled="true"
       snapvisiblegridlinesonly="true"
       originx="-469.0126px"
       originy="-735.94594px" />
  </sodipodi:namedview>
  <metadata
     id="metadata7">
    <rdf:RDF>
      <cc:Work
         rdf:about="">
        <dc:format>image/svg+xml</dc:format>
        <dc:type
           rdf:resource="http://purl.org/dc/dcmitype/StillImage" />
        <dc:title />
      </cc:Work>
    </rdf:RDF>
  </metadata>
  <g
     inkscape:label="Layer 1"
     inkscape:groupmode="layer"
     id="layer1"
     transform="translate(-469.0126,-69.84375)">
    <path
       style="fill:none;stroke:none"
       id="path3140"
       d="m 369.49944,11.63786 c 0.0177,-0.16403 1.9e-4,-0.3251 -0.028,-0.486464 -0.0362,-0.133022 -0.0917,-0.257149 -0.15497,-0.379068 -0.0619,-0.103855 -0.10951,-0.214519 -0.16414,-0.322055 -0.0475,-0.122372 -0.0787,-0.250056 -0.12227,-0.374035 -0.0373,-0.1431262 -0.0511,-0.2911157 -0.0599,-0.4384102 0.005,-0.1438197 -0.0381,-0.2831053 -0.0631,-0.4235294 -0.0448,-0.1240222 -0.0724,-0.2530999 -0.103,-0.3811948 -0.0389,-0.1394183 -0.10059,-0.2716844 -0.15171,-0.407328 -0.0369,-0.092502 -0.0572,-0.1749265 -0.15147,-0.2170611 -0.10781,-0.021298 -0.20876,-0.07239 -0.31907,-0.091575 -0.12784,-0.011151 -0.25627,-0.012782 -0.38452,-0.012579 -0.13899,-0.035402 -0.2564,-0.1160105 -0.39518,-0.1531186 -0.13112,-0.026801 -0.26555,-0.024218 -0.39869,-0.026852 -0.0238,0.00605 -0.0485,0.00942 -0.0716,0.018149 -0.0374,0.01418 -0.2839,0.1575333 -0.13149,0.070609 0.33148,-0.1890409 1.32698,-0.7542426 0.99555,-0.5651371 -0.39786,0.2270048 -0.79635,0.4529069 -1.19452,0.6793603 0.72161,-0.412988 2.23801,-1.2829124 -0.12529,0.078682 -0.0606,0.034926 -0.0522,0.029731 -0.11792,0.050436 -0.0175,0.00553 -0.0687,0.025219 -0.0528,0.016004 0.3637,-0.2104698 0.73157,-0.413645 1.09736,-0.6204675 -0.0888,0.052687 -0.17838,0.1094807 -0.25288,0.1822766 -0.1278,0.094188 -0.23738,0.204361 -0.34386,0.3214046 -0.1037,0.1285824 -0.21796,0.2470502 -0.31646,0.3798545 -0.0808,0.1083556 -0.16691,0.2155794 -0.22856,0.3362469 -0.0596,0.086102 -0.0957,0.1822027 -0.14125,0.2750417 -0.0496,0.107921 -0.10238,0.2147669 -0.15995,0.3187382 -0.0494,0.1184745 -0.12464,0.2221825 -0.20183,0.3238892 -0.10112,0.143384 -0.17839,0.3011267 -0.2657,0.4529167 -0.0857,0.140776 -0.16762,0.283893 -0.26226,0.418929 -0.0843,0.107983 -0.14613,0.230774 -0.19791,0.35698 -0.0522,0.126195 -0.12066,0.244643 -0.17487,0.369911 -0.0547,0.133468 -0.0526,0.279409 -0.0895,0.41711 -0.0456,0.117642 -0.0535,0.242323 -0.075,0.365099 -0.0396,0.14681 -0.0605,0.297163 -0.0863,0.446631 -0.0428,0.15822 -0.0671,0.318781 -0.0837,0.481479 -0.0134,0.183801 -0.0128,0.368244 -0.013,0.552421 10e-4,0.170993 0.002,0.341827 6.9e-4,0.512813 2.8e-4,0.18269 -0.002,0.365444 0.002,0.548099 -0.003,0.150077 0.005,0.300038 7.4e-4,0.450088 -0.005,0.170317 0.001,0.34063 -0.002,0.510934 -0.002,0.161653 0.004,0.323321 0.002,0.484954 0.002,0.160726 -0.009,0.322305 0.007,0.482484 0.004,0.02497 0.009,0.04994 0.013,0.07492 0,0 -1.15673,0.616964 -1.15673,0.616964 l 0,0 c -0.005,-0.02685 -0.011,-0.0537 -0.0165,-0.08055 -0.0281,-0.164456 -0.007,-0.332126 -0.0148,-0.498458 -0.003,-0.162147 0.004,-0.324336 0.002,-0.486504 -0.003,-0.169702 0.003,-0.339418 -0.002,-0.509134 -0.004,-0.150293 0.004,-0.300509 7.4e-4,-0.450831 0.004,-0.183155 10e-4,-0.366401 10e-4,-0.549587 -0.002,-0.171133 -0.002,-0.342135 -4.8e-4,-0.513283 3.2e-4,-0.186647 5.6e-4,-0.373348 0.007,-0.5599 0.007,-0.167728 0.0272,-0.334882 0.0735,-0.496628 0.038,-0.145812 0.0358,-0.300381 0.0833,-0.445052 0.032,-0.123425 0.0195,-0.25404 0.0678,-0.37328 0.048,-0.145821 0.0591,-0.276217 0.0903,-0.42654 0.0405,-0.131364 0.10227,-0.252977 0.17035,-0.372063 0.0527,-0.134804 0.10572,-0.269616 0.1871,-0.390205 0.10353,-0.127821 0.18678,-0.267666 0.27188,-0.407974 0.0934,-0.15001 0.16996,-0.307098 0.25954,-0.458981 0.0645,-0.104751 0.14898,-0.19692 0.20482,-0.305206 0.0475,-0.1067193 0.10812,-0.2072286 0.15767,-0.3126771 0.0129,-0.030806 0.0349,-0.057391 0.0471,-0.088491 0.0277,-0.070486 0.034,-0.1428852 0.0943,-0.1993821 0.12934,-0.2060257 -0.0623,0.1090456 0.06,-0.1288252 0.0421,-0.08186 0.12494,-0.1445792 0.16361,-0.229575 0.1176,-0.1306552 -0.009,0.016782 0.10084,-0.1336936 0.049,-0.067089 0.1092,-0.119902 0.16454,-0.1803275 0.0185,-0.020212 0.0332,-0.043592 0.0499,-0.065388 0.0932,-0.1263226 0.19924,-0.2560078 0.33502,-0.33764 0.16627,-0.1444226 -0.0528,0.053749 0.0912,-0.101988 0.031,-0.03357 0.0783,-0.046615 0.11342,-0.071812 0.0116,-0.00832 0.0194,-0.02095 0.0291,-0.031425 0.39253,-0.2224889 0.78425,-0.4464127 1.17759,-0.6674667 0.0218,-0.012272 0.29252,-0.1611118 0.15122,-0.079184 -1.1603,0.6727511 -1.74254,1.0071127 0.1289,-0.071237 -0.35138,0.2034298 -0.70275,0.4068597 -1.05413,0.6102895 0.0222,-0.012772 0.0443,-0.025577 0.0665,-0.038316 0.29589,-0.1698654 0.90622,-0.7136294 1.42656,-0.7246379 0.14349,0.0026 0.28886,0.00726 0.42595,0.054347 0.12283,0.045413 0.23553,0.1251056 0.37096,0.1220387 0.13637,0.00305 0.27379,0.00418 0.4077,0.033748 0.116,0.036481 0.23097,0.078634 0.34304,0.1252617 0.10367,0.078519 0.14903,0.1792968 0.19569,0.2980451 0.0398,0.1425332 0.10419,0.2743529 0.14883,0.4148596 0.0424,0.1297051 0.0553,0.2677686 0.11215,0.3935526 0.0215,0.1461214 0.0639,0.2892061 0.0717,0.4366258 0.004,0.1362657 0.007,0.2736796 0.0429,0.4061592 0.0371,0.1191786 0.0763,0.2370413 0.11375,0.3556852 0.0558,0.1081706 0.0993,0.2216737 0.16488,0.3247787 0.0619,0.136293 0.12626,0.270448 0.16391,0.416329 0.0283,0.166053 0.0574,0.32974 0.0529,0.498886 0,0 -1.1797,0.601086 -1.1797,0.601086 z"
       inkscape:connector-curvature="0" />
    <path
       style="fill:#000000;fill-opacity:1;stroke:#000000;stroke-width:1px;stroke-linecap:butt;stroke-linejoin:miter;stroke-opacity:1"
       d="m 558.50966,70.120796 c -4.72832,7.140226 -9.9603,18.021763 -20.20243,16.630021 -9.81863,-1.06254 -13.35656,-4.616018 -23.81042,-7.131521 -7.59983,-1.828738 -11.23725,-0.51138 -14.39576,1.026951 -15.15619,15.065527 -20.42542,37.354143 -16.51142,58.324563 2.51498,-15.73117 2.60072,-39.129661 12.72935,-49.672959 19.44929,1.668498 21.09544,9.057473 39.37893,8.569139 -4.39513,12.65284 -28.07115,49.23624 -34.34319,61.03941 -2.84966,4.74962 -3.04951,9.06226 -4.80027,10.62027 -2.271,1.42559 -8.98778,9.38549 -4.03388,11.97687 11.70598,0.81391 17.04899,3.22367 18.36319,16.80833 -8.49931,26.06424 -32.29777,44.99902 -37.94458,69.30728 -2.839,10.62029 -5.69061,22.22879 -0.71018,32.7214 3.0162,9.09662 11.39999,16.92751 21.51607,15.39632 12.4646,-2.08549 23.00519,-11.56248 28.87662,-22.44989 5.39733,-10.3966 9.08243,-22.27466 8.15582,-34.04103 -1.82547,-13.13484 -10.49337,1.84408 -10.86212,7.52691 -2.89191,6.16877 0.32085,11.12996 4.27908,14.90655 -2.33131,10.21848 -10.08743,21.18883 -21.24167,22.41328 -9.22558,0.88674 -19.18052,-2.13151 -23.52625,-10.99637 -5.39553,-8.15267 -2.3076,-17.95041 -1.11341,-26.85785 1.77851,-29.92902 45.51243,-56.43953 40.17041,-81.15497 -0.40416,-10.3736 -11.98069,-13.47063 -18.22316,-16.59709 0.40587,-2.18446 0.57362,-4.57748 3.6725,-9.85553 6.85973,-12.34897 26.81775,-43.59048 33.13631,-56.21569 3.14469,-5.946155 6.3651,-13.364702 14.17847,-16.740017 4.52398,-4.00521 5.1915,-10.213598 7.26199,-15.554377 z"
       id="path3801"
       inkscape:connector-curvature="0"
       sodipodi:nodetypes="ccscccccccccccccccccccccccc" />
  </g>
</svg>
